<svg width="25" height="24" viewBox="0 0 25 24" fill="none" xmlns="http://www.w3.org/2000/svg">
<g clip-path="url(#clip0_287_978)">
<path d="M13.8335 18V20H17.8335V22H7.83354V20H11.8335V18H3.82554C3.69422 17.9992 3.56435 17.9725 3.44337 17.9215C3.3224 17.8704 3.21268 17.7959 3.12053 17.7024C3.02837 17.6088 2.95559 17.498 2.90634 17.3763C2.85709 17.2546 2.83235 17.1243 2.83354 16.993V4.007C2.83354 3.451 3.28854 3 3.82554 3H21.8415C22.3895 3 22.8335 3.449 22.8335 4.007V16.993C22.8335 17.549 22.3785 18 21.8415 18H13.8335Z" fill="#D6C8FC"/>
</g>
<defs>
<clipPath id="clip0_287_978">
<rect width="24" height="24" fill="white" transform="translate(0.833496)"/>
</clipPath>
</defs>
</svg>
