<svg width="25" height="24" viewBox="0 0 25 24" fill="none" xmlns="http://www.w3.org/2000/svg">
<path d="M21.4443 3V21C21.4443 21.2652 21.339 21.5196 21.1514 21.7071C20.9639 21.8946 20.7096 22 20.4443 22H4.44434C4.17912 22 3.92477 21.8946 3.73723 21.7071C3.54969 21.5196 3.44434 21.2652 3.44434 21V3C3.44434 2.73478 3.54969 2.48043 3.73723 2.29289C3.92477 2.10536 4.17912 2 4.44434 2H20.4443C20.7096 2 20.9639 2.10536 21.1514 2.29289C21.339 2.48043 21.4443 2.73478 21.4443 3ZM5.44434 16V20H19.4443V16H5.44434ZM15.4443 17H17.4443V19H15.4443V17Z" fill="#FB637E"/>
</svg>
