<svg width="25" height="24" viewBox="0 0 25 24" fill="none" xmlns="http://www.w3.org/2000/svg">
<g clip-path="url(#clip0_287_1008)">
<path d="M4.55566 12H7.55566C8.0861 12 8.5948 12.2107 8.96988 12.5858C9.34495 12.9609 9.55566 13.4696 9.55566 14V19C9.55566 19.5304 9.34495 20.0391 8.96988 20.4142C8.5948 20.7893 8.0861 21 7.55566 21H4.55566C4.02523 21 3.51652 20.7893 3.14145 20.4142C2.76638 20.0391 2.55566 19.5304 2.55566 19V12C2.55566 6.477 7.03266 2 12.5557 2C18.0787 2 22.5557 6.477 22.5557 12V19C22.5557 19.5304 22.3449 20.0391 21.9699 20.4142C21.5948 20.7893 21.0861 21 20.5557 21H17.5557C17.0252 21 16.5165 20.7893 16.1415 20.4142C15.7664 20.0391 15.5557 19.5304 15.5557 19V14C15.5557 13.4696 15.7664 12.9609 16.1415 12.5858C16.5165 12.2107 17.0252 12 17.5557 12H20.5557C20.5557 9.87827 19.7128 7.84344 18.2125 6.34315C16.7122 4.84285 14.6774 4 12.5557 4C10.4339 4 8.3991 4.84285 6.89881 6.34315C5.39852 7.84344 4.55566 9.87827 4.55566 12Z" fill="#461E0A"/>
</g>
<defs>
<clipPath id="clip0_287_1008">
<rect width="24" height="24" fill="white" transform="translate(0.555664)"/>
</clipPath>
</defs>
</svg>
