<svg width="25" height="24" viewBox="0 0 25 24" fill="none" xmlns="http://www.w3.org/2000/svg">
<g clip-path="url(#clip0_287_1018)">
<path d="M11.3632 2H13.0812C15.0952 2 16.1752 2.278 17.1532 2.801C18.1195 3.31249 18.9097 4.10269 19.4212 5.069C19.9442 6.047 20.2222 7.127 20.2222 9.141V14.859C20.2222 16.873 19.9442 17.953 19.4212 18.931C18.9097 19.8973 18.1195 20.6875 17.1532 21.199C16.1752 21.722 15.0952 22 13.0812 22H11.3622C9.34817 22 8.26817 21.722 7.29017 21.199C6.32386 20.6875 5.53366 19.8973 5.02217 18.931C4.50017 17.953 4.22217 16.873 4.22217 14.859V9.14C4.22217 7.126 4.50017 6.046 5.02317 5.068C5.53508 4.10192 6.32563 3.31206 7.29217 2.801C8.26917 2.278 9.34917 2 11.3632 2ZM11.2222 6V11H13.2222V6H11.2222Z" fill="#8CC8FA"/>
</g>
<defs>
<clipPath id="clip0_287_1018">
<rect width="24" height="24" fill="white" transform="translate(0.222168)"/>
</clipPath>
</defs>
</svg>
