<svg width="25" height="24" viewBox="0 0 25 24" fill="none" xmlns="http://www.w3.org/2000/svg">
<g clip-path="url(#clip0_270_998)">
<path d="M6.16675 2H18.1667C18.432 2 18.6863 2.10536 18.8739 2.29289C19.0614 2.48043 19.1667 2.73478 19.1667 3V21C19.1667 21.2652 19.0614 21.5196 18.8739 21.7071C18.6863 21.8946 18.432 22 18.1667 22H6.16675C5.90153 22 5.64718 21.8946 5.45964 21.7071C5.27211 21.5196 5.16675 21.2652 5.16675 21V3C5.16675 2.73478 5.27211 2.48043 5.45964 2.29289C5.64718 2.10536 5.90153 2 6.16675 2ZM12.1667 17C11.9015 17 11.6472 17.1054 11.4596 17.2929C11.2721 17.4804 11.1667 17.7348 11.1667 18C11.1667 18.2652 11.2721 18.5196 11.4596 18.7071C11.6472 18.8946 11.9015 19 12.1667 19C12.432 19 12.6863 18.8946 12.8739 18.7071C13.0614 18.5196 13.1667 18.2652 13.1667 18C13.1667 17.7348 13.0614 17.4804 12.8739 17.2929C12.6863 17.1054 12.432 17 12.1667 17Z" fill="#FF9A9D"/>
</g>
<defs>
<clipPath id="clip0_270_998">
<rect width="24" height="24" fill="white" transform="translate(0.166748)"/>
</clipPath>
</defs>
</svg>
