<svg width="25" height="24" viewBox="0 0 25 24" fill="none" xmlns="http://www.w3.org/2000/svg">
<g clip-path="url(#clip0_287_1003)">
<path d="M15.5253 4.99999H21.1193C21.6673 4.99999 22.1113 5.44499 22.1113 5.99999V20C22.1113 20.552 21.6563 21 21.1193 21H3.10335C2.97247 20.9997 2.84294 20.9736 2.72218 20.9232C2.60142 20.8727 2.49182 20.7989 2.39965 20.706C2.30748 20.6131 2.23457 20.5029 2.18509 20.3818C2.13562 20.2606 2.11056 20.1309 2.11135 20V5.99999C2.11135 5.44799 2.56635 4.99999 3.10335 4.99999H8.69735L6.16135 2.46399L7.57535 1.04999L11.5253 4.99999H12.6973L16.6473 1.04999L18.0613 2.46399L15.5253 4.99999Z" fill="#F6A973"/>
</g>
<defs>
<clipPath id="clip0_287_1003">
<rect width="24" height="24" fill="white" transform="translate(0.111328)"/>
</clipPath>
</defs>
</svg>
