<svg width="16" height="17" viewBox="0 0 16 17" fill="none" xmlns="http://www.w3.org/2000/svg">
<g clip-path="url(#clip0_270_910)">
<path d="M7.99992 15.1666C4.31792 15.1666 1.33325 12.182 1.33325 8.49998C1.33325 4.81798 4.31792 1.83331 7.99992 1.83331C11.6819 1.83331 14.6666 4.81798 14.6666 8.49998C14.6666 12.182 11.6819 15.1666 7.99992 15.1666ZM4.66659 8.49998C4.66659 9.38403 5.01777 10.2319 5.6429 10.857C6.26802 11.4821 7.11586 11.8333 7.99992 11.8333C8.88397 11.8333 9.73182 11.4821 10.3569 10.857C10.9821 10.2319 11.3333 9.38403 11.3333 8.49998H9.99992C9.99992 9.03041 9.78921 9.53912 9.41413 9.91419C9.03906 10.2893 8.53035 10.5 7.99992 10.5C7.46949 10.5 6.96078 10.2893 6.5857 9.91419C6.21063 9.53912 5.99992 9.03041 5.99992 8.49998H4.66659Z" fill="#000032"/>
</g>
<defs>
<clipPath id="clip0_270_910">
<rect width="16" height="16" fill="white" transform="translate(0 0.5)"/>
</clipPath>
</defs>
</svg>
